<svg width="815" height="963" viewBox="0 0 815 963" fill="none" xmlns="http://www.w3.org/2000/svg">
<g clip-path="url(#clip0_202_2)">
<path d="M800.91 943.804C796.299 950.019 790.584 955.331 784.049 959.475C782.659 960.356 781.232 961.187 779.781 961.956H745.623C746.032 961.137 746.429 960.306 746.814 959.475C757.405 937.126 760.726 912.02 756.31 887.686C751.895 863.352 739.965 841.014 722.197 823.811C742.843 830.188 761.926 842.62 774.408 860.252C780.473 868.838 784.786 878.535 787.101 888.789C789.164 868.282 785.885 847.589 777.584 828.724C794.347 842.36 807.4 861.033 812.375 882.052C817.35 903.083 813.74 926.421 800.91 943.804Z" fill="#F0F0F0"/>
<path d="M814.748 963.001H494.958V960.388H815.222L814.748 963.001Z" fill="#3F3D56"/>
<path d="M383.081 326.653C383.081 374.596 366.331 415.529 334.456 445.989C311.837 467.616 276.997 497.928 276.997 529.976V556.491H170.912V529.976C170.912 497.593 135.935 467.219 113.452 445.989C82.297 416.596 64.8272 372.884 64.8272 326.653V325.673C64.9641 283.475 81.8568 243.058 111.79 213.314C141.723 183.569 182.246 166.932 224.444 167.062C266.643 167.192 307.062 184.078 336.811 214.007C366.561 243.935 383.204 284.455 383.081 326.653Z" fill="#FDFF8F"/>
<path d="M276.995 560.215C276.008 560.215 275.061 559.823 274.363 559.125C273.665 558.427 273.273 557.48 273.273 556.493V529.973C273.273 498.799 304.018 469.697 326.468 448.447C328.329 446.683 330.142 444.973 331.882 443.305C362.936 413.616 379.352 373.28 379.352 326.656C379.352 239.519 311.094 171.26 223.957 171.26H223.518C182.51 171.306 143.189 187.587 114.151 216.543C85.1134 245.499 68.722 284.774 68.5606 325.781V326.65C68.5606 372.31 85.8555 414.822 116.013 443.29C117.541 444.733 119.128 446.218 120.757 447.743C143.496 469.033 174.639 498.189 174.639 529.974V556.493C174.639 557.48 174.247 558.427 173.549 559.125C172.851 559.823 171.904 560.215 170.917 560.215C169.93 560.215 168.983 559.823 168.285 559.125C167.587 558.427 167.195 557.48 167.195 556.493V529.973C167.195 501.417 137.416 473.536 115.668 453.17C114.032 451.639 112.443 450.148 110.903 448.697C79.2634 418.829 61.1161 374.346 61.1161 326.651V325.758C61.3642 236.367 134.178 163.81 223.506 163.81H223.967C266.928 163.587 308.219 180.439 338.756 210.66C369.292 240.88 386.573 281.994 386.796 324.955C386.799 325.522 386.799 326.089 386.796 326.656C386.796 375.362 369.586 417.559 337.027 448.686C335.279 450.357 333.459 452.08 331.585 453.853C310.12 474.173 280.714 502.002 280.714 529.973V556.493C280.714 557.48 280.322 558.427 279.624 559.125C278.926 559.823 277.979 560.215 276.992 560.215H276.995Z" fill="#F9FAD0"/>
<path d="M259.317 607.977H188.594C186.949 607.977 185.371 607.323 184.207 606.16C183.044 604.996 182.39 603.418 182.39 601.773C182.39 600.128 183.044 598.55 184.207 597.386C185.371 596.223 186.949 595.569 188.594 595.569H259.317C260.962 595.569 262.54 596.223 263.704 597.386C264.867 598.55 265.521 600.128 265.521 601.773C265.521 603.418 264.867 604.996 263.704 606.16C262.54 607.323 260.962 607.977 259.317 607.977Z" fill="#A4A4A4"/>
<path d="M231.56 649.543H216.34C211.053 649.546 205.865 648.109 201.334 645.385C200.662 644.993 200.142 644.387 199.856 643.664C199.571 642.94 199.537 642.142 199.76 641.397C199.964 640.632 200.416 639.956 201.045 639.476C201.674 638.995 202.444 638.736 203.236 638.739H244.664C245.455 638.736 246.226 638.995 246.855 639.476C247.484 639.956 247.936 640.632 248.14 641.397C248.363 642.142 248.329 642.94 248.044 643.664C247.758 644.387 247.238 644.994 246.566 645.385C242.035 648.109 236.847 649.546 231.56 649.543Z" fill="#3A3A3A"/>
<path d="M259.329 627.574L188.186 627.566L187.966 627.093C187.756 626.225 187.748 625.319 187.941 624.447C188.135 623.574 188.525 622.757 189.083 622.058C189.648 621.342 190.368 620.763 191.19 620.366C192.012 619.968 192.913 619.763 193.826 619.765H254.074C254.987 619.763 255.888 619.968 256.71 620.366C257.532 620.763 258.253 621.342 258.818 622.059C259.371 622.748 259.76 623.554 259.955 624.415C260.151 625.276 260.149 626.171 259.948 627.031L259.836 627.51L259.329 627.574Z" fill="#595959"/>
<path d="M59.4311 180.42C57.9314 180.421 56.4823 179.877 55.354 178.89L2.0771 132.385C0.85663 131.298 0.11454 129.773 0.012136 128.141C-0.090268 126.51 0.455296 124.904 1.53022 123.673C2.60514 122.441 4.12256 121.684 5.75276 121.565C7.38296 121.446 8.99419 121.976 10.2363 123.038L63.5132 169.543C64.4648 170.374 65.1402 171.475 65.4492 172.7C65.7581 173.924 65.6859 175.214 65.2421 176.397C64.7983 177.579 64.0041 178.598 62.9657 179.317C61.9273 180.036 60.6942 180.421 59.4311 180.421V180.42Z" fill="#E4E4E4"/>
<path d="M379.643 180.419C378.38 180.42 377.147 180.035 376.109 179.316C375.07 178.597 374.276 177.578 373.832 176.395C373.388 175.212 373.316 173.923 373.625 172.698C373.934 171.473 374.61 170.372 375.561 169.541L428.837 123.033C430.079 121.97 431.69 121.441 433.32 121.56C434.95 121.679 436.468 122.436 437.543 123.667C438.618 124.899 439.163 126.505 439.061 128.136C438.958 129.767 438.216 131.292 436.996 132.379L383.719 178.884C382.592 179.874 381.143 180.419 379.643 180.419Z" fill="#E4E4E4"/>
<path d="M276.995 585.959H170.911C169.265 585.959 167.687 585.306 166.524 584.142C165.36 582.979 164.707 581.401 164.707 579.756C164.707 578.11 165.36 576.532 166.524 575.369C167.687 574.205 169.265 573.552 170.911 573.552H276.995C278.641 573.552 280.219 574.205 281.382 575.369C282.546 576.532 283.199 578.11 283.199 579.756C283.199 581.401 282.546 582.979 281.382 584.142C280.219 585.306 278.641 585.959 276.995 585.959Z" fill="white"/>
<path d="M221.349 423.892L199.288 556.491H186.694L209.102 421.857C209.372 420.233 210.276 418.782 211.615 417.825C212.954 416.867 214.619 416.481 216.243 416.751C217.867 417.021 219.317 417.925 220.275 419.264C221.232 420.603 221.619 422.268 221.349 423.892Z" fill="#E6E6E6"/>
<path d="M263.745 556.491H251.152L229.091 423.892C228.821 422.268 229.207 420.603 230.165 419.264C231.123 417.925 232.573 417.021 234.197 416.751C235.821 416.481 237.485 416.867 238.824 417.825C240.164 418.782 241.067 420.233 241.337 421.857L263.745 556.491Z" fill="#E6E6E6"/>
<path d="M183.635 419.462C183.635 417.816 184.289 416.238 185.452 415.075C186.616 413.911 188.194 413.258 189.839 413.258H258.072C259.717 413.258 261.295 413.911 262.459 415.075C263.622 416.238 264.276 417.816 264.276 419.462C264.276 421.107 263.622 422.685 262.459 423.848C261.295 425.012 259.717 425.665 258.072 425.665H189.839C188.194 425.665 186.616 425.012 185.452 423.848C184.289 422.685 183.635 421.107 183.635 419.462Z" fill="#E6E6E6"/>
<path d="M223.955 118.492C222.31 118.492 220.732 117.839 219.569 116.675C218.405 115.512 217.752 113.934 217.752 112.289V6.20379C217.752 4.55844 218.405 2.98048 219.569 1.81705C220.732 0.653611 222.31 0 223.955 0C225.601 0 227.179 0.653611 228.342 1.81705C229.506 2.98048 230.159 4.55844 230.159 6.20379V112.289C230.159 113.934 229.506 115.512 228.342 116.675C227.179 117.839 225.601 118.492 223.955 118.492Z" fill="#E4E4E4"/>
<path d="M731.078 945.642H715.869L708.632 886.969H731.08L731.078 945.642Z" fill="#FEB8B8"/>
<path d="M734.958 960.387H685.909V959.767C685.91 954.704 687.921 949.849 691.501 946.269C695.08 942.689 699.935 940.677 704.998 940.676H734.958L734.958 960.387Z" fill="#2F2E41"/>
<path d="M615.517 945.14L600.822 941.211L608.986 882.66L630.674 888.459L615.517 945.14Z" fill="#FEB8B8"/>
<path d="M615.457 960.387L568.073 947.716L568.233 947.117C569.541 942.225 572.739 938.054 577.122 935.52C581.506 932.986 586.717 932.297 591.608 933.605L620.549 941.343L615.457 960.387Z" fill="#2F2E41"/>
<path d="M739.829 616.827L752.57 631.63L736.093 932.442H700.894L683.151 700.977L628.125 938.649L591.532 929.675L624.805 627.799L739.829 616.827Z" fill="#2F2E41"/>
<path d="M633.311 422.617L668.358 405.033L722.252 405.981L768.632 429.713L742.243 561.503L753.642 630.216C709.585 641.452 663.461 641.832 619.225 631.323L618.872 631.239C618.872 631.239 645.07 538.286 633.918 509.919L633.311 422.617Z" fill="#E6E6E6"/>
<path d="M734.701 352.38C734.662 341.864 730.452 331.794 722.996 324.379C715.54 316.964 705.446 312.811 694.931 312.83C684.415 312.85 674.337 317.041 666.908 324.483C659.48 331.925 655.307 342.011 655.307 352.527C655.307 363.042 659.48 373.128 666.908 380.571C674.337 388.013 684.415 392.204 694.931 392.224C705.446 392.243 715.54 388.089 722.996 380.675C730.452 373.26 734.662 363.189 734.701 352.674V352.38Z" fill="#FEB8B8"/>
<path d="M628.475 518.702C629.229 520.639 630.399 522.388 631.902 523.824C633.405 525.261 635.204 526.35 637.174 527.016C639.144 527.681 641.235 527.907 643.301 527.677C645.368 527.447 647.358 526.766 649.133 525.684L720.294 563.301L722.598 545.966L653.451 505.191C651.434 502.33 648.438 500.309 645.031 499.509C641.623 498.709 638.04 499.188 634.961 500.853C631.883 502.518 629.522 505.255 628.326 508.545C627.13 511.834 627.183 515.448 628.473 518.702H628.475Z" fill="#FEB8B8"/>
<path d="M723.304 521.699C722.145 523.424 720.621 524.875 718.84 525.948C717.059 527.02 715.064 527.69 712.997 527.908C710.929 528.127 708.839 527.889 706.873 527.213C704.907 526.536 703.113 525.437 701.618 523.992L623.947 545.128L624.623 523.12L701.887 503.053C704.48 500.702 707.846 499.384 711.347 499.349C714.847 499.314 718.239 500.565 720.879 502.864C723.519 505.163 725.224 508.35 725.671 511.822C726.117 515.294 725.275 518.809 723.303 521.701L723.304 521.699Z" fill="#FEB8B8"/>
<path d="M753.487 430.667L768.631 429.718C768.631 429.718 786.361 453.112 776.527 478.499C776.527 478.499 778.23 569.695 738.962 565.948C699.693 562.201 687.284 562.202 687.284 562.202L699.071 529.322L725.441 521.18C725.441 521.18 717.314 485.33 732.698 470.413L753.487 430.667Z" fill="#E6E6E6"/>
<path d="M644.137 429.866L641.996 418.894C641.996 418.894 610.432 418.15 604.191 465.982C604.191 465.982 575.806 537.564 603.627 546.782C631.449 555.999 662.053 546.782 662.053 546.782L659.749 515.212L629.14 508.967C629.14 508.967 644.953 488.508 636.342 470.762L644.137 429.866Z" fill="#E6E6E6"/>
<path d="M708.749 371.873C705.829 370.727 702.596 370.787 699.51 370.221C688.476 368.188 679.965 356.937 681.013 345.766C681.277 344.319 681.301 342.838 681.085 341.383C680.32 338.195 676.777 336.484 673.523 336.103C670.268 335.721 666.905 336.209 663.739 335.362C658.851 334.053 655.199 329.595 653.961 324.688C652.907 319.698 653.457 314.503 655.533 309.844L657.052 313.011C658.632 311.334 659.709 309.248 660.162 306.99C661.488 307.061 662.775 307.472 663.897 308.183C665.019 308.894 665.94 309.881 666.572 311.05C668.534 311.926 668.294 307.444 670.249 306.557C671.13 306.345 672.058 306.466 672.855 306.897C677.164 308.342 681.734 306.173 686.004 304.619C693.4 301.936 701.323 301.03 709.134 301.976C714.323 302.609 719.562 304.143 723.601 307.459C726.792 310.35 729.387 313.838 731.239 317.725C736.223 327.041 739.978 337.319 739.876 347.888C739.774 356.539 737.113 364.966 732.227 372.106C729.681 375.811 721.458 388.661 715.992 387.247C709.126 385.474 716.968 375.097 708.749 371.873Z" fill="#2F2E41"/>
</g>
<defs>
<clipPath id="clip0_202_2">
<rect width="815.222" height="963" fill="white"/>
</clipPath>
</defs>
</svg>
