<svg 
  viewBox="0 0 736 736" 
  fill="none" 
  xmlns="http://www.w3.org/2000/svg"
>
  <path 
    d="M92 521.334V214.667C92 198.401 98.4619 182.8 109.964 171.298C121.466 159.796 137.067 153.334 153.333 153.334H582.667C598.933 153.334 614.534 159.796 626.036 171.298C637.538 182.8 644 198.401 644 214.667V521.334C644 537.601 637.538 553.201 626.036 564.703C614.534 576.205 598.933 582.667 582.667 582.667H153.333C137.067 582.667 121.466 576.205 109.964 564.703C98.4619 553.201 92 537.601 92 521.334Z" 
    stroke="#2F2E41" 
    stroke-opacity="0.2" 
    stroke-width="46.75"
  />
  <path 
    d="M357.788 276.001L306.667 368.001H429.333L378.212 460.001" 
    stroke="#2F2E41" 
    stroke-opacity="0.2" 
    stroke-width="46.75" 
    stroke-linecap="round" 
    stroke-linejoin="round"
  />
  <path 
    d="M184 245.334H214.667" 
    stroke="#2F2E41" 
    stroke-opacity="0.2" 
    stroke-width="46.75" 
    stroke-linecap="round" 
    stroke-linejoin="round"
  />
</svg>
