<svg 
  viewBox="0 0 612 586" 
  fill="none" 
  xmlns="http://www.w3.org/2000/svg"
>
  <path 
    d="M54.7293 117.648C144.889 -2.44246 331.649 -37.3718 464.559 45.2749C595.812 126.848 644.081 283.77 590.292 430.97C539.539 569.982 405.801 625.028 309.416 555.108C273.321 528.919 259.307 496.075 252.56 442.746L249.309 412.478L247.929 400.272C244.157 371.63 238.392 358.811 226.309 352.064C209.903 342.926 198.955 342.711 177.396 351.052L166.632 355.53L161.143 357.922C130.047 371.415 109.377 376.168 83.2186 370.679L77.0853 369.238L72.056 367.796C-13.4734 341.3 -26.1387 225.288 54.7293 117.648ZM84.9053 323.606L88.6773 324.74L92.7866 325.66C106.249 328.328 117.749 326.12 136.855 318.239L155.316 310.358C192.177 295.239 216.189 293.798 248.727 311.891C276.848 327.592 287.827 351.696 293.408 393.464L295.033 407.54L296.72 423.855L298.161 436.796C303.436 478.534 313.035 500.89 336.433 517.879C406.2 568.479 506.143 527.355 547.113 415.176C593.604 287.848 552.449 154.08 440.271 84.3135C327.571 14.2709 167.368 44.2629 91.4986 145.248C27.8653 229.98 35.6853 307.168 84.9053 323.606ZM429.139 262.456C427.69 257.55 427.238 252.404 427.809 247.32C428.38 242.236 429.963 237.319 432.464 232.856C434.965 228.394 438.334 224.477 442.373 221.337C446.411 218.197 451.037 215.897 455.979 214.573C460.92 213.249 466.076 212.927 471.143 213.626C476.211 214.326 481.087 216.032 485.485 218.645C489.883 221.259 493.713 224.726 496.75 228.842C499.787 232.959 501.969 237.642 503.168 242.615C505.511 252.335 503.964 262.586 498.856 271.182C493.748 279.778 485.484 286.037 475.826 288.626C466.168 291.214 455.881 289.927 447.159 285.038C438.437 280.149 431.97 272.046 429.139 262.456ZM444.288 369.422C441.657 359.601 443.035 349.137 448.119 340.332C453.203 331.527 461.576 325.102 471.397 322.471C481.218 319.84 491.682 321.218 500.487 326.302C509.292 331.386 515.717 339.759 518.348 349.58C519.651 354.443 519.983 359.515 519.326 364.506C518.668 369.497 517.034 374.31 514.517 378.67C512 383.03 508.648 386.851 504.654 389.916C500.66 392.98 496.101 395.228 491.239 396.531C486.376 397.834 481.304 398.166 476.313 397.509C471.321 396.851 466.509 395.217 462.149 392.7C457.789 390.183 453.968 386.831 450.903 382.837C447.839 378.843 445.591 374.284 444.288 369.422ZM368.48 170.364C365.849 160.543 367.227 150.079 372.311 141.274C377.395 132.469 385.768 126.045 395.589 123.414C405.41 120.782 415.874 122.16 424.679 127.244C433.484 132.328 439.909 140.702 442.54 150.523C443.843 155.386 444.175 160.458 443.518 165.449C442.86 170.44 441.226 175.253 438.709 179.613C436.192 183.973 432.84 187.794 428.846 190.858C424.852 193.923 420.293 196.171 415.431 197.474C405.61 200.105 395.146 198.727 386.341 193.643C381.981 191.125 378.16 187.774 375.095 183.78C372.031 179.786 369.783 175.227 368.48 170.364ZM367.621 446.303C366.172 441.397 365.72 436.25 366.291 431.167C366.862 426.083 368.445 421.165 370.947 416.703C373.448 412.241 376.817 408.324 380.855 405.184C384.894 402.044 389.52 399.744 394.461 398.42C399.402 397.095 404.559 396.773 409.626 397.473C414.694 398.172 419.57 399.879 423.968 402.492C428.365 405.105 432.196 408.573 435.232 412.689C438.269 416.806 440.452 421.488 441.651 426.462C443.994 436.182 442.447 446.433 437.339 455.029C432.231 463.624 423.967 469.884 414.309 472.473C404.651 475.061 394.364 473.774 385.642 468.885C376.92 463.996 370.453 455.892 367.621 446.303ZM260.38 140.556C259.03 135.678 258.66 130.58 259.29 125.558C259.921 120.536 261.54 115.688 264.054 111.295C266.568 106.902 269.927 103.05 273.937 99.9618C277.947 96.8736 282.53 94.6102 287.419 93.3022C292.309 91.9942 297.409 91.6676 302.426 92.3411C307.443 93.0147 312.276 94.6751 316.648 97.2265C321.019 99.7779 324.842 103.17 327.896 107.207C330.95 111.243 333.174 115.845 334.44 120.746C336.969 130.534 335.528 140.925 330.432 149.656C325.336 158.388 316.997 164.752 307.231 167.365C297.464 169.977 287.061 168.626 278.287 163.605C269.512 158.584 263.076 150.3 260.38 140.556Z" 
    fill="#2F2E41" 
    fill-opacity="0.2"
  />
</svg>
