<svg 
  width="100%" 
  height="100%"
  viewBox="0 0 690 598" 
  fill="none" 
  xmlns="http://www.w3.org/2000/svg"
>
  <path 
    d="M613.398 285.085C584.43 269.192 482.977 236.313 398.567 211.715L459.839 148.43L466.486 155.319L481.126 140.208L474.478 133.308L516.844 89.5275L508.737 81.1325L551.103 37.375L514.947 0L472.569 43.769L464.416 35.374L422.015 79.143L406.146 62.767L308.269 163.99L320.608 176.789L403.65 90.9305L407.284 94.3805L317.642 186.967C236.739 149.868 206.08 190.82 164.162 247.4C141.22 278.358 112.654 316.905 68.2065 354.441C53.6705 366.689 38.778 387.78 40.6065 410.251C41.5035 421.406 47.2075 437.207 67.7005 451.076L24.0695 532.002L0 556.91L11.914 569.227L36.0985 544.26L92.138 512.095C102.591 526.044 118.715 535.946 135.171 537.568C174.742 541.523 208.276 556.255 240.718 570.504C272.883 584.648 303.255 598 334.972 598C376.798 598 409.458 592.331 444.015 586.316C488.876 578.531 539.729 569.71 625.612 569.71C657.559 569.71 680.076 543.605 687.389 498.134C700.304 418.14 663.642 312.616 613.398 285.085ZM276.081 406.859C265.052 401.776 254.564 396.957 245.916 393.783C245.284 393.553 244.582 393.358 243.949 393.128C248.917 385.342 259.014 372.152 278.932 353.522C277.426 375.579 276.517 395.968 276.081 406.859ZM464.427 56.0165L496.88 89.5275L464.496 122.97L432.044 89.4585L464.427 56.0165ZM417.381 104.604L449.834 138.115L209.473 386.377C177.905 384.365 140.001 392.967 107.375 424.822L417.381 104.604ZM83.214 372.221C130.191 333.488 159.183 293.204 182.85 261.28C223.606 206.275 244.904 174.248 305.256 199.778L92.161 419.9C81.6155 413.678 56.626 394.139 83.214 372.221ZM45.5975 522.157L79.626 458.815L82.5585 461.84C78.8862 473.973 79.5406 487.005 84.41 498.709L45.5975 522.157ZM670.979 491.303C667.862 510.715 644.426 537.142 617.941 537.142C530.047 537.142 485.806 550.091 439.921 557.52C351.095 571.883 285.165 553.61 256.462 535.313C184.518 489.474 145.291 513.118 112.229 487.646C101.591 479.447 102.545 459.414 112.953 446.89C158.953 391.667 218.845 400.924 238.28 410.148C294.227 436.713 345.104 440.622 358.708 437.655C372.336 434.872 384.388 427.466 393.794 418.186C383.099 426.04 370.611 431.215 357.868 431.894C345.161 432.78 308.568 421.36 302.37 418.703C300.127 407.698 296.516 388.079 296.182 373.692C319.113 397.072 344.322 403.006 344.322 403.006L295.274 338.33C295.274 338.33 367.034 259.314 414.782 235.06C495.167 258.658 579.646 285.131 603.957 298.471C645.334 321.138 682.134 422.165 670.979 491.303Z" 
    fill="#2F2E41" 
    fill-opacity="0.2"
  />
</svg>
